HIERARCHY
ROOT Hips
{
	OFFSET 0.00000 0.00000 0.00000
	CHANNELS 6 Xposition Yposition Zposition Zrotation Yrotation Xrotation 
	JOINT LHipJoint
	{
		OFFSET 0 0 0
		CHANNELS 3 Zrotation Yrotation Xrotation
		JOINT LeftHip
		{
			OFFSET 1.75344 -1.53157 0.77399
			CHANNELS 3 Zrotation Yrotation Xrotation
			JOINT LeftKnee
			{
				OFFSET 2.25415 -6.19323 0.00000
				CHANNELS 3 Zrotation Yrotation Xrotation
				JOINT LeftAnkle
				{
					OFFSET 2.30342 -6.32861 0.00000
					CHANNELS 3 Zrotation Yrotation Xrotation
					JOINT LeftToe
					{
						OFFSET 0.10958 -0.30108 1.49206
						CHANNELS 3 Zrotation Yrotation Xrotation
						End Site
						{
							OFFSET 0.00000 -0.00000 0.77783
						}
					}
				}
			}
		}
	}
	JOINT RHipJoint
	{
		OFFSET 0 0 0
		CHANNELS 3 Zrotation Yrotation Xrotation
		JOINT RightHip
		{
			OFFSET -1.81912 -1.53156 0.77399
			CHANNELS 3 Zrotation Yrotation Xrotation
			JOINT RightKnee
			{
				OFFSET -2.22882 -6.12365 0.00000
				CHANNELS 3 Zrotation Yrotation Xrotation
				JOINT RightAnkle
				{
					OFFSET -2.21943 -6.09785 0.00000
					CHANNELS 3 Zrotation Yrotation Xrotation
					JOINT RightToe
					{
						OFFSET -0.18931 -0.52012 1.59379
						CHANNELS 3 Zrotation Yrotation Xrotation
						End Site
						{
							OFFSET -0.00000 -0.00000 0.84686
						}
					}
				}
			}
		}
	}
	JOINT lowerback
	{
		OFFSET 0 0 0
		CHANNELS 3 Zrotation Yrotation Xrotation
		JOINT Chest
		{
			OFFSET -0.00200 1.66634 -0.14248
			CHANNELS 3 Zrotation Yrotation Xrotation
			JOINT Chest2
			{
				OFFSET -0.00875 1.64542 0.09514
				CHANNELS 3 Zrotation Yrotation Xrotation
				JOINT lowerneck
				{
					OFFSET 0 0 0
					CHANNELS 3 Zrotation Yrotation Xrotation
					JOINT Neck
					{
						OFFSET 0.02257 1.59605 0.00839
						CHANNELS 3 Zrotation Yrotation Xrotation
						JOINT Head
						{
							OFFSET -0.10214 1.57530 -0.23335
							CHANNELS 3 Zrotation Yrotation Xrotation
							End Site
							{
								OFFSET -0.03588 1.60717 -0.08062
							}
						}
					}
				}
				JOINT LeftCollar
				{
					OFFSET 0 0 0
					CHANNELS 3 Zrotation Yrotation Xrotation
					JOINT LeftShoulder
					{
						OFFSET 2.54983 1.10186 0.40078
CHANNELS 3 Zrotation Xrotation Yrotation
						JOINT LeftElbow
						{
OFFSET 0 -4.288400 0.000000
CHANNELS 3 Zrotation Xrotation Yrotation
							JOINT LeftWrist
							{
OFFSET 0 -3.065520 -0.000000
CHANNELS 3 Zrotation Xrotation Yrotation
								JOINT lhand
								{
									OFFSET 0 0 0
CHANNELS 3 Zrotation Xrotation Yrotation
									JOINT LFingers
									{
OFFSET 0 -0.753040 0.000000
CHANNELS 3 Zrotation Xrotation Yrotation
										End Site
										{
OFFSET 0 -0.607120 0.000000
										}
									}
								}
								JOINT LThumb
								{
OFFSET 0 0.000000 0.000000
CHANNELS 3 Zrotation Xrotation Yrotation
									End Site
									{
OFFSET 0 -0.616390 0.616390
									}
								}
							}
						}
					}
				}
				JOINT RightCollar
				{
					OFFSET 0 0 0
					CHANNELS 3 Zrotation Yrotation Xrotation
					JOINT RightShoulder
					{
						OFFSET -2.60909 1.35448 0.21802
CHANNELS 3 Zrotation Xrotation Yrotation
						JOINT RightElbow
						{
OFFSET 0 -4.521720 -0.000000
CHANNELS 3 Zrotation Xrotation Yrotation
							JOINT RightWrist
							{
OFFSET 0 -2.891400 0.000000
CHANNELS 3 Zrotation Xrotation Yrotation
								JOINT rhand
								{
									OFFSET 0 0 0
CHANNELS 3 Zrotation Xrotation Yrotation
									JOINT RFingers
									{
OFFSET 0 -0.680540 0.000000
CHANNELS 3 Zrotation Xrotation Yrotation
										End Site
										{
OFFSET 0 -0.548670 0.000000
										}
									}
								}
								JOINT RThumb
								{
OFFSET 0 0.000000 0.000000
CHANNELS 3 Zrotation Xrotation Yrotation
									End Site
									{
OFFSET 0 -0.557050 0.557050
									}
								}
							}
						}
					}
				}
			}
		}
	}
}
MOTION
Frames: 9
Frame Time: 0.008333333333333333
7.999201 15.429341 -31.149781 -177.279154 -25.532377 182.065307 0.000000 0.000000 0.000000 -24.815240 -9.937348 -10.186944 2.609949 10.035087 29.090435 1.605324 -2.109171 -23.377827 0.756575 -5.551941 -15.490622 0.000000 0.000000 0.000000 13.999754 21.927316 -16.469602 -2.134153 -9.138802 26.231455 -0.132691 -10.753831 -17.163881 -2.198392 9.267317 -26.635529 -2.994655 2.194291 9.636888 0.277863 2.402664 3.632574 1.706892 1.076813 -1.763830 7.887572 10.220372 -2.469599 -5.082699 13.308437 -4.194835 -2.734584 6.530000 0.003432 0.000000 0.000000 0.000000 1.092595 -2.700622 -7.229750 20.183530 -30.862712 5.625241 7.180316 8.525826 34.493912 0.000000 0.000000 0.000000 -7.125000 0.000000 0.000000 -13.969912 -3.823567 -15.320109 0.000000 0.000000 0.000000 -4.241311 -0.979838 18.186375 -20.667710 -31.438466 -5.875692 -16.119692 31.445615 53.327913 0.000000 0.000000 0.000000 7.125000 0.000000 0.000000 66.619973 77.421028 -54.336371
8.072130 15.400204 -31.365089 -177.221387 -29.134182 182.059821 0.000000 0.000000 0.000000 -24.167390 -10.896721 -9.975835 2.781440 10.332585 30.060686 1.696264 -4.746141 -23.557141 0.631085 -5.082430 -14.143904 0.000000 0.000000 0.000000 13.288660 26.040477 -13.471770 -1.559382 -7.880574 22.351883 -0.051429 -12.480786 -18.398340 -1.963320 8.788870 -25.137294 -2.012747 2.249976 10.001371 0.205525 2.557207 3.652526 1.052231 1.160497 -1.905993 8.538512 10.655470 -1.484176 -5.807713 13.961918 -4.506895 -3.123329 6.868511 -0.115931 0.000000 0.000000 0.000000 1.462536 -1.513054 -8.310065 20.772833 -31.553230 5.934746 7.862565 7.216671 34.197281 0.000000 0.000000 0.000000 -7.125000 0.000000 0.000000 -13.581848 -3.623278 -14.823849 0.000000 0.000000 0.000000 -3.958262 -0.653347 17.529996 -20.968279 -31.791328 -6.033191 -15.327343 30.730105 53.208178 0.000000 0.000000 0.000000 7.125000 0.000000 0.000000 66.360829 77.077512 -53.734471
8.151351 15.387056 -31.596693 -178.317912 -32.357391 182.799284 0.000000 0.000000 0.000000 -24.420716 -12.142081 -9.077689 2.709391 10.209043 29.656312 1.611860 -7.620723 -22.735539 0.110753 -2.142891 -5.900824 0.000000 0.000000 0.000000 12.967121 26.788014 -12.052250 -1.580223 -7.930592 22.503617 -0.109373 -11.185090 -17.411279 -1.043653 6.485319 -18.203377 -2.498590 2.329722 9.806567 0.105255 2.621308 3.796233 1.223101 1.187069 -1.669119 8.571789 10.290619 -1.652899 -6.138548 13.473996 -4.108405 -3.231649 6.636864 0.034358 0.000000 0.000000 0.000000 1.425002 -1.688361 -8.091597 20.028452 -30.676234 5.546071 8.320036 5.944112 35.588596 0.000000 0.000000 0.000000 -7.125000 0.000000 0.000000 -13.433529 -5.031461 -14.961429 0.000000 0.000000 0.000000 -3.991332 -0.873615 17.334786 -20.713520 -31.492399 -5.899591 -15.556391 31.305286 53.047437 0.000000 0.000000 0.000000 7.125000 0.000000 0.000000 65.593347 77.122857 -53.077847
8.247169 15.405121 -31.829800 -177.863649 -35.523809 182.669364 0.000000 0.000000 0.000000 -23.393200 -14.353432 -7.893062 2.670426 10.141359 29.435617 1.690637 -7.271374 -23.307372 0.589051 -4.912963 -13.660705 0.000000 0.000000 0.000000 14.401328 26.575174 -11.076851 -1.646647 -8.087647 22.980547 0.323701 -14.737372 -16.919014 -1.145502 6.795989 -19.112478 -1.746140 2.210774 9.900791 0.402151 2.537415 3.915649 1.116968 1.146312 -1.574904 7.589504 9.845504 -1.966544 -5.357259 12.874716 -4.017853 -2.814095 6.341139 -0.053340 0.000000 0.000000 0.000000 1.246004 -0.619317 -9.061721 21.240784 -32.108268 6.177443 7.976477 4.822988 34.799102 0.000000 0.000000 0.000000 -7.125000 0.000000 0.000000 -13.560111 -4.221030 -14.932871 0.000000 0.000000 0.000000 -3.853894 -1.342495 17.099418 -20.425726 -31.151773 -5.749918 -15.674162 31.761543 53.148602 0.000000 0.000000 0.000000 7.125000 0.000000 0.000000 65.984838 77.197274 -53.515663
8.347906 15.431507 -32.052287 -177.790299 -37.924831 183.070553 0.000000 0.000000 0.000000 -22.778151 -16.922821 -6.754041 2.564415 9.954004 28.828032 1.760927 -4.976954 -23.991004 1.502332 -7.741031 -21.930504 0.000000 0.000000 0.000000 15.163461 25.182385 -11.367593 -1.719705 -8.256072 23.494597 0.383217 -15.193070 -16.882311 -0.942301 6.181667 -17.312757 -1.514854 2.234765 9.865505 0.752267 2.597237 4.031387 1.345679 1.172972 -1.443640 6.908214 9.595552 -2.181349 -5.098570 12.519387 -4.467749 -2.632567 6.158865 -0.246294 0.000000 0.000000 0.000000 0.890106 -0.365970 -9.174691 21.522183 -32.431630 6.328165 4.225889 7.405602 33.796663 0.000000 0.000000 0.000000 -7.125000 0.000000 0.000000 -15.531360 -2.811451 -16.895305 0.000000 0.000000 0.000000 -4.001130 -1.980836 17.165404 -20.614999 -31.376143 -5.848170 -17.493286 32.692598 53.557417 0.000000 0.000000 0.000000 7.125000 0.000000 0.000000 67.289421 78.021530 -55.588757
8.452596 15.451683 -32.292287 -177.821486 -40.624802 183.514888 0.000000 0.000000 0.000000 -21.988544 -19.151471 -5.489534 2.390776 9.636628 27.807761 1.733539 -5.007938 -23.791743 1.787514 -8.408693 -23.962388 0.000000 0.000000 0.000000 16.068591 23.501567 -11.487754 -1.790778 -8.415916 23.984693 0.315940 -15.648043 -18.633027 -0.579441 4.874397 -13.550584 -1.359976 1.989092 9.896665 0.912991 2.292652 4.043310 1.458196 1.023234 -1.437889 7.346783 9.636270 -2.023290 -5.425257 12.571707 -4.602538 -2.823106 6.181824 -0.261102 0.000000 0.000000 0.000000 0.943891 -0.375804 -9.527244 21.131266 -31.981200 6.119287 1.751192 8.578446 33.229508 0.000000 0.000000 0.000000 -7.125000 0.000000 0.000000 -16.851486 -2.027539 -18.233295 0.000000 0.000000 0.000000 -3.820405 -2.373596 17.681944 -20.934928 -31.752336 -6.015664 -16.040800 31.546425 52.471342 0.000000 0.000000 0.000000 7.125000 0.000000 0.000000 62.956065 77.139257 -50.693062
8.568053 15.480878 -32.554410 -177.708651 -42.981860 183.863653 0.000000 0.000000 0.000000 -20.649375 -20.396615 -5.501901 2.410001 9.672337 27.922019 1.657775 -6.949315 -23.087003 1.380514 -7.416931 -20.964812 0.000000 0.000000 0.000000 17.435567 21.695338 -11.149645 -1.720819 -8.258595 23.502316 0.570633 -17.320895 -18.344951 -0.813880 5.754425 -16.074239 -1.247052 1.908208 9.961583 1.032337 2.202609 4.025829 1.526088 0.981007 -1.488616 6.740272 9.654899 -2.396151 -4.632758 12.593316 -4.423446 -2.439893 6.191285 -0.235862 0.000000 0.000000 0.000000 1.012846 -0.797928 -9.479834 20.986924 -31.813042 6.043108 3.014728 9.190210 33.832159 0.000000 0.000000 0.000000 -7.125000 0.000000 0.000000 -16.186339 -2.722601 -17.642604 0.000000 0.000000 0.000000 -3.598075 -2.551187 18.538457 -21.145039 -31.997194 -6.126649 -18.385205 32.769916 52.722212 0.000000 0.000000 0.000000 7.125000 0.000000 0.000000 63.172463 78.155141 -51.936098
8.685184 15.495604 -32.796722 -177.207881 -45.888896 183.882249 0.000000 0.000000 0.000000 -19.009488 -21.613790 -5.753413 2.464685 9.773378 28.246045 1.532653 -8.870928 -22.178112 1.072075 -6.581936 -18.482557 0.000000 0.000000 0.000000 18.866762 19.976104 -11.303441 -1.741899 -8.306267 23.648380 0.608323 -18.090747 -19.372391 -0.616181 5.004196 -13.925068 -0.619748 1.664018 10.156779 1.130821 1.935493 4.076472 1.301623 0.850870 -1.515770 7.825590 9.939419 -1.880691 -5.585729 12.972011 -4.903231 -2.960524 6.372575 -0.311898 0.000000 0.000000 0.000000 0.575364 -1.796252 -9.216879 21.230793 -32.096734 6.172138 7.928603 6.658480 35.924481 0.000000 0.000000 0.000000 -7.125000 0.000000 0.000000 -13.667787 -5.304338 -15.296901 0.000000 0.000000 0.000000 -3.460341 -2.784680 18.612065 -21.173321 -32.030061 -6.141619 -16.515757 31.850321 53.231716 0.000000 0.000000 0.000000 7.125000 0.000000 0.000000 66.073191 77.552344 -53.970529
8.823631 15.501622 -33.051365 -176.625140 -49.434323 183.397175 0.000000 0.000000 0.000000 -17.137202 -22.631446 -6.343065 2.566051 9.956952 28.837498 1.132678 -12.412882 -19.662982 0.151130 -2.404047 -6.628689 0.000000 0.000000 0.000000 20.633683 18.569912 -10.994632 -1.780369 -8.392786 23.913463 0.928012 -20.231307 -19.723586 -0.812476 5.667651 -15.846068 -0.392883 1.383338 10.864265 1.386836 1.571687 4.236724 1.469510 0.661604 -1.726534 7.982819 10.647756 -1.847619 -5.513452 13.924296 -4.874589 -2.928588 6.846038 -0.239031 0.000000 0.000000 0.000000 0.589171 -2.012676 -11.995424 22.960280 -34.044926 7.116193 9.549671 3.055443 36.640464 0.000000 0.000000 0.000000 -7.125000 0.000000 0.000000 -12.867811 -6.223650 -14.540458 0.000000 0.000000 0.000000 -3.702150 -2.736517 19.191336 -20.996016 -31.823719 -6.047848 -15.274817 30.095283 53.198290 0.000000 0.000000 0.000000 7.125000 0.000000 0.000000 66.348268 77.054426 -53.698012
